<?xml version="1.0" encoding="UTF-8"?>
<svg xmlns="http://www.w3.org/2000/svg" width="1200" height="400" viewBox="0 0 1200 400">
<rect x="0" y="0" width="1200" height="400" fill="white" />
<rect x="40" y="5" width="1120" height="50" rx="6" ry="6" fill="#f3f6fa" stroke="black" stroke-width="1.5" />
<text x="60" y="26" font-size="20" font-weight="bold" font-family="Arial, sans-serif">Water Cooling Loop</text>
<text x="60" y="43" font-size="12" font-family="Arial, sans-serif">Fluid: Cooling Water | P: 6.0 bar | T: 25.0 C | Line: SCH-40-COO-100-CS</text>
<line x1="60" y1="200" x2="1140" y2="200" stroke="black" stroke-width="4" />
<circle cx="160.0" cy="200.0" r="28" fill="lightblue" stroke="black" stroke-width="2" />
<polygon points="150.0,188.0 150.0,212.0 174.0,200.0" fill="black" stroke="black" stroke-width="1" />
<line x1="160.0" y1="172.0" x2="160.0" y2="120" stroke="black" stroke-width="1.5" stroke-dasharray="5,4" />
<circle cx="160.0" cy="98" r="22" fill="white" stroke="black" stroke-width="1.5" />
<text x="160.0" y="99" font-size="10" font-family="monospace" text-anchor="middle" dominant-baseline="middle">P-100A</text>
<text x="160.0" y="260" font-size="11" font-family="monospace" text-anchor="middle">P-100A</text>
<circle cx="336.0" cy="200.0" r="24" fill="lightgreen" stroke="black" stroke-width="2" />
<text x="336.0" y="201.0" font-size="14" font-weight="bold" font-family="Arial, sans-serif" text-anchor="middle" dominant-baseline="middle">FT</text>
<line x1="336.0" y1="176.0" x2="336.0" y2="120" stroke="black" stroke-width="1.5" stroke-dasharray="5,4" />
<circle cx="336.0" cy="98" r="22" fill="white" stroke="black" stroke-width="1.5" />
<text x="336.0" y="99" font-size="10" font-family="monospace" text-anchor="middle" dominant-baseline="middle">FT-101</text>
<text x="336.0" y="260" font-size="11" font-family="monospace" text-anchor="middle">FT-101</text>
<polygon points="484.0,184.0 512.0,200.0 484.0,216.0" fill="orange" stroke="black" stroke-width="2" />
<polygon points="540.0,184.0 512.0,200.0 540.0,216.0" fill="orange" stroke="black" stroke-width="2" />
<line x1="512.0" y1="182.0" x2="512.0" y2="120" stroke="black" stroke-width="1.5" stroke-dasharray="5,4" />
<circle cx="512.0" cy="98" r="22" fill="white" stroke="black" stroke-width="1.5" />
<text x="512.0" y="99" font-size="10" font-family="monospace" text-anchor="middle" dominant-baseline="middle">FCV-101</text>
<text x="512.0" y="260" font-size="11" font-family="monospace" text-anchor="middle">FCV-101</text>
<rect x="648.0" y="175.0" width="80" height="50" fill="lightyellow" stroke="black" stroke-width="2" />
<line x1="654.0" y1="181.0" x2="722.0" y2="219.0" stroke="black" stroke-width="2" />
<line x1="722.0" y1="181.0" x2="654.0" y2="219.0" stroke="black" stroke-width="2" />
<line x1="688.0" y1="175.0" x2="688.0" y2="120" stroke="black" stroke-width="1.5" stroke-dasharray="5,4" />
<circle cx="688.0" cy="98" r="22" fill="white" stroke="black" stroke-width="1.5" />
<text x="688.0" y="99" font-size="10" font-family="monospace" text-anchor="middle" dominant-baseline="middle">HE-100</text>
<text x="688.0" y="260" font-size="11" font-family="monospace" text-anchor="middle">HE-100</text>
<polygon points="840.0,184.0 882.0,200.0 840.0,216.0" fill="lightyellow" stroke="black" stroke-width="2" />
<line x1="868.0" y1="182.0" x2="868.0" y2="218.0" stroke="black" stroke-width="2" />
<line x1="864.0" y1="182.0" x2="864.0" y2="120" stroke="black" stroke-width="1.5" stroke-dasharray="5,4" />
<circle cx="864.0" cy="98" r="22" fill="white" stroke="black" stroke-width="1.5" />
<text x="864.0" y="99" font-size="10" font-family="monospace" text-anchor="middle" dominant-baseline="middle">CV-103</text>
<text x="864.0" y="260" font-size="11" font-family="monospace" text-anchor="middle">CV-103</text>
<circle cx="1040.0" cy="200.0" r="20" fill="lightyellow" stroke="black" stroke-width="2" />
<text x="1040.0" y="201.0" font-size="12" font-weight="bold" font-family="Arial, sans-serif" text-anchor="middle" dominant-baseline="middle">TT</text>
<line x1="1040.0" y1="180.0" x2="1040.0" y2="120" stroke="black" stroke-width="1.5" stroke-dasharray="5,4" />
<circle cx="1040.0" cy="98" r="22" fill="white" stroke="black" stroke-width="1.5" />
<text x="1040.0" y="99" font-size="10" font-family="monospace" text-anchor="middle" dominant-baseline="middle">TT-104</text>
<text x="1040.0" y="260" font-size="11" font-family="monospace" text-anchor="middle">TT-104</text>
<text x="60" y="320" font-size="12" font-family="Arial, sans-serif">Flow: 45.0 m3/h | Material: CS | Schedule: SCH-40</text>
<rect x="900" y="290" width="280" height="100" rx="6" ry="6" fill="#fafafa" stroke="black" stroke-width="1.2" />
<text x="912" y="308" font-size="12" font-weight="bold" font-family="Arial, sans-serif">Legend</text>
<circle cx="916.0" cy="319.0" r="8" fill="lightblue" stroke="black" stroke-width="1.5" /><polygon points="913.0,315.0 913.0,323.0 921.0,319.0" fill="black" stroke="black" stroke-width="0.5" />
<text x="938" y="322" font-size="9" font-family="Arial, sans-serif">Pump</text>
<polygon points="906.0,330.0 916.0,336.0 906.0,342.0" fill="orange" stroke="black" stroke-width="1" /><polygon points="926.0,330.0 916.0,336.0 926.0,342.0" fill="orange" stroke="black" stroke-width="1" />
<text x="938" y="339" font-size="9" font-family="Arial, sans-serif">Control Valve</text>
<polygon points="907.0,347.0 924.0,353.0 907.0,359.0" fill="lightyellow" stroke="black" stroke-width="1" /><line x1="917.0" y1="346.0" x2="917.0" y2="360.0" stroke="black" stroke-width="1" />
<text x="938" y="356" font-size="9" font-family="Arial, sans-serif">Check Valve</text>
<rect x="906.0" y="363.0" width="20" height="14" fill="lightyellow" stroke="black" stroke-width="1" /><line x1="908.0" y1="365.0" x2="924.0" y2="375.0" stroke="black" stroke-width="1" /><line x1="924.0" y1="365.0" x2="908.0" y2="375.0" stroke="black" stroke-width="1" />
<text x="938" y="373" font-size="9" font-family="Arial, sans-serif">Heat Exchanger</text>
<circle cx="1051.0" cy="319.0" r="8" fill="lightgreen" stroke="black" stroke-width="1.5" /><text x="1051.0" y="319.5" font-size="5.5" font-weight="bold" font-family="Arial, sans-serif" text-anchor="middle" dominant-baseline="middle">FT</text>
<text x="1073" y="322" font-size="9" font-family="Arial, sans-serif">Flow Meter</text>
<polygon points="1043.0,342.0 1059.0,342.0 1051.0,328.0" fill="red" stroke="darkred" stroke-width="1" />
<text x="1073" y="339" font-size="9" font-family="Arial, sans-serif">Relief Valve</text>
<circle cx="1051.0" cy="353.0" r="8" fill="lightyellow" stroke="black" stroke-width="1.5" /><text x="1051.0" y="353.5" font-size="5.5" font-weight="bold" font-family="Arial, sans-serif" text-anchor="middle" dominant-baseline="middle">TT</text>
<text x="1073" y="356" font-size="9" font-family="Arial, sans-serif">Temp Tx</text>
<circle cx="1051.0" cy="370.0" r="8" fill="lightcyan" stroke="black" stroke-width="1.5" /><text x="1051.0" y="370.5" font-size="5.5" font-weight="bold" font-family="Arial, sans-serif" text-anchor="middle" dominant-baseline="middle">PT</text>
<text x="1073" y="373" font-size="9" font-family="Arial, sans-serif">Press Tx</text>
</svg>